<?xml version="1.0" standalone="no"?>
<!DOCTYPE svg PUBLIC "-//W3C//DTD SVG 20010904//EN"
 "http://www.w3.org/TR/2001/REC-SVG-20010904/DTD/svg10.dtd">
<svg version="1.0" xmlns="http://www.w3.org/2000/svg"
 width="250.000000pt" height="70.000000pt" viewBox="0 0 250.000000 70.000000"
 preserveAspectRatio="xMidYMid meet">

<g transform="translate(0.000000,70.000000) scale(0.100000,-0.100000)"
fill="#000000" stroke="none">
<path d="M1152 438 c3 -110 6 -138 22 -161 23 -34 65 -57 106 -57 25 0 30 4
30 25 0 20 -5 25 -24 25 -39 0 -76 36 -76 76 l0 34 50 0 c47 0 50 2 50 25 0
23 -3 25 -50 25 l-50 0 0 70 0 70 -31 0 -31 0 4 -132z"/>
<path d="M45 495 c-24 -23 -25 -29 -25 -155 0 -126 1 -132 25 -155 23 -24 29
-25 155 -25 126 0 132 1 155 25 24 23 25 29 25 153 0 116 -2 132 -21 156 -20
26 -22 26 -155 26 -130 0 -136 -1 -159 -25z m300 -10 c24 -23 25 -30 25 -145
0 -115 -1 -122 -25 -145 -23 -24 -30 -25 -143 -25 -169 0 -167 -2 -167 170 0
172 -2 170 167 170 113 0 120 -1 143 -25z"/>
<path d="M225 429 c-16 -11 -37 -24 -45 -28 -12 -8 -12 -12 -1 -25 10 -12 18
-13 32 -5 19 10 19 9 4 -27 -21 -51 -42 -66 -110 -76 -11 -2 -21 -11 -23 -21
-5 -25 63 -23 106 3 36 22 72 74 72 105 1 19 1 19 14 3 14 -20 32 -23 40 -9 6
10 -42 101 -52 100 -4 0 -20 -9 -37 -20z"/>
<path d="M513 460 c-48 -29 -63 -67 -63 -160 0 -79 0 -80 25 -80 24 0 25 2 25
76 0 70 2 78 29 105 17 17 40 29 55 29 21 0 26 5 26 25 0 22 -4 25 -32 25 -18
0 -47 -9 -65 -20z"/>
<path d="M679 457 c-69 -46 -76 -142 -14 -204 29 -29 40 -33 83 -33 40 0 57 6
82 26 29 25 30 28 14 45 -16 18 -17 18 -42 -1 -24 -19 -82 -28 -82 -12 0 4 31
39 70 77 75 74 76 81 19 111 -41 21 -91 17 -130 -9z m95 -35 c7 -11 -88 -104
-97 -96 -15 15 -6 47 22 75 28 28 64 38 75 21z"/>
<path d="M955 470 c-11 -4 -31 -20 -45 -35 -22 -24 -25 -37 -28 -121 l-4 -94
26 0 c26 0 26 1 26 79 0 90 14 117 66 127 24 4 37 0 59 -18 26 -22 29 -32 33
-106 4 -79 5 -82 30 -82 l24 0 -4 88 c-4 95 -15 121 -65 153 -29 20 -83 24
-118 9z"/>
<path d="M1405 470 c-43 -17 -68 -58 -73 -115 -4 -53 -3 -56 36 -95 34 -35 46
-40 84 -40 109 0 171 115 111 207 -30 46 -104 66 -158 43z m99 -61 c19 -15 26
-29 26 -57 0 -73 -75 -108 -125 -57 -71 70 21 176 99 114z"/>
<path d="M1674 465 c-57 -29 -69 -64 -72 -218 l-4 -137 31 0 c31 0 31 0 31 55
l0 55 56 0 c94 0 144 47 144 134 0 93 -102 154 -186 111z m111 -60 c16 -15 25
-36 25 -55 0 -49 -38 -80 -100 -80 l-50 0 0 55 c0 46 4 60 25 80 13 14 36 25
50 25 14 0 37 -11 50 -25z"/>
<path d="M2014 471 c-11 -5 -33 -23 -47 -41 -21 -25 -27 -42 -27 -78 1 -26 6
-57 14 -70 32 -59 122 -80 184 -42 35 21 40 41 17 60 -12 10 -20 8 -41 -9 -15
-12 -38 -21 -51 -21 -34 0 -73 42 -73 80 0 38 39 80 73 80 13 0 37 -10 51 -21
26 -20 29 -21 44 -5 39 39 -80 94 -144 67z"/>
<path d="M2274 471 c-11 -5 -33 -23 -47 -41 -48 -57 -31 -162 33 -195 61 -32
145 -9 176 47 8 13 13 44 14 71 0 40 -5 53 -33 83 -26 29 -42 37 -77 40 -25 2
-54 0 -66 -5z m101 -66 c16 -15 25 -36 25 -55 0 -38 -39 -80 -73 -80 -42 0
-77 36 -77 80 0 71 76 104 125 55z"/>
<path d="M1884 255 c-8 -19 3 -35 26 -35 19 0 30 17 23 38 -6 17 -42 15 -49
-3z"/>
</g>
</svg>
