<svg width="77" height="77" viewBox="0 0 77 77" fill="none" xmlns="http://www.w3.org/2000/svg">
<path d="M56.3114 49.9497L49.9915 47.191L46.5306 43.7301C46.3192 43.5186 46.0322 43.3996 45.7331 43.3996C45.7071 43.3996 45.6814 43.4018 45.6555 43.4034V41.1303C48.6144 39.214 50.777 36.1328 51.4518 32.458C51.4582 32.4347 51.4959 32.3966 51.5219 32.3861C51.8729 32.4105 52.2281 32.3807 52.578 32.2981C54.1551 31.9249 55.2997 30.4104 55.2997 28.6973V27.7578C55.2997 26.466 54.6394 25.3068 53.6245 24.6575C53.9348 23.4669 54.0942 22.2475 54.0942 21.0195C54.0942 15.7083 51.2059 11.0335 46.8604 8.36982C46.8604 8.36682 46.8609 8.36411 46.8609 8.36125C46.861 3.75074 43.1101 0 38.4998 0C33.8894 0 30.1385 3.75074 30.1385 8.36125C30.1385 8.36411 30.139 8.36697 30.139 8.36982C25.7934 11.0335 22.9052 15.7083 22.9052 21.0195C22.9052 22.2445 23.0637 23.4609 23.3725 24.6488C22.3581 25.2942 21.6997 26.4576 21.6997 27.7721V28.6973C21.6997 30.4106 22.8443 31.9249 24.4214 32.2981C24.7712 32.3808 25.1266 32.4105 25.4775 32.3861C25.5035 32.3966 25.5412 32.4347 25.5474 32.4566C26.2225 36.1322 28.3851 39.2137 31.344 41.1301V43.4034C31.3182 43.4016 31.2925 43.3996 31.2664 43.3996C30.9673 43.3996 30.6804 43.5186 30.4689 43.7301L27.0081 47.191L20.6883 49.9497C17.5474 51.3209 15.5344 54.5427 15.6795 57.9668L16.4405 75.9196C16.4662 76.5257 16.9657 76.9999 17.5666 76.9999C17.5827 76.9999 17.599 76.9996 17.6152 76.9988C18.2377 76.9725 18.7207 76.4466 18.6944 75.8241L17.9334 57.8711C17.8797 56.6044 18.2312 55.3758 18.8887 54.3414L22.4164 58.5746C23.5092 59.886 24.111 61.5481 24.111 63.2551V75.8719C24.111 76.4948 24.616 76.9999 25.2389 76.9999C25.8619 76.9999 26.3669 76.4948 26.3669 75.8719V63.2551C26.3669 61.0216 25.5794 58.8465 24.1495 57.1306L20.4409 52.6802C20.7949 52.4205 21.1795 52.1967 21.5909 52.0172L27.2023 49.5678L31.1505 55.9765C31.5084 56.5574 32.1004 56.9515 32.7744 57.0575C32.8956 57.0766 33.0173 57.0859 33.1382 57.0859C33.6894 57.0859 34.2261 56.8906 34.6519 56.5274L37.3721 54.2059V75.8719C37.3721 76.4948 37.8772 76.9999 38.5001 76.9999C39.123 76.9999 39.628 76.4948 39.628 75.8719V54.2062L42.3483 56.5275C42.774 56.8909 43.3108 57.0861 43.8619 57.0861C43.9828 57.0861 44.1045 57.0766 44.2257 57.0576C44.8998 56.9516 45.4917 56.5576 45.8496 55.9765L49.7978 49.5678L55.4092 52.0172C55.8207 52.1967 56.2051 52.4207 56.5592 52.6802L52.8506 57.1306C51.4207 58.8465 50.6333 61.0216 50.6333 63.2551V75.8719C50.6333 76.4948 51.1383 76.9999 51.7612 76.9999C52.3841 76.9999 52.8891 76.4948 52.8891 75.8719V63.2551C52.8891 61.5483 53.4908 59.886 54.5837 58.5748L58.1114 54.3416C58.7689 55.376 59.1202 56.6045 59.0667 57.8713L58.3057 75.8243C58.2794 76.4466 58.7625 76.9725 59.3849 76.9989C59.4012 76.9997 59.4173 77 59.4335 77C60.0345 77 60.5339 76.526 60.5596 75.9198L61.3206 57.9668C61.4651 54.5425 59.4523 51.3207 56.3114 49.9497ZM38.4998 2.25586C41.4616 2.25586 43.9365 4.37606 44.4891 7.17813C42.6439 6.43761 40.6209 6.02765 38.4998 6.02765C36.3787 6.02765 34.3555 6.43761 32.5105 7.17813C33.063 4.37606 35.538 2.25586 38.4998 2.25586ZM27.7661 32.0492C27.5535 30.8912 26.481 30.0511 25.3265 30.1354C25.2008 30.1445 25.071 30.1336 24.941 30.1029C24.3792 29.9698 23.9555 29.3657 23.9555 28.6972V27.772C23.9555 27.0873 24.4035 26.4923 24.9977 26.3881C25.4872 26.3022 25.9578 26.4825 26.2556 26.8708C26.4715 27.1524 26.7591 27.3536 27.0869 27.4526C27.5674 27.5978 28.0979 27.5127 28.5051 27.2252C29.4917 26.5289 30.328 25.6455 30.9906 24.5996C31.324 24.0734 31.1679 23.3767 30.6417 23.0431C30.1157 22.7098 29.4187 22.8659 29.0852 23.392C28.682 24.0282 28.1962 24.584 27.6371 25.0499C27.0656 24.5219 26.3388 24.2014 25.568 24.1286C25.2993 23.1108 25.1609 22.0684 25.1609 21.0193C25.1609 13.9967 31.1446 8.28335 38.4995 8.28335C45.8543 8.28335 51.838 13.9967 51.838 21.0193C51.838 22.0674 51.7001 23.1087 51.4318 24.1253C51.0374 24.1482 50.6299 24.2137 50.2633 24.3159L49.2321 23.468C48.7767 23.0936 48.2057 22.9069 47.6241 22.9405C46.515 23.0061 43.5775 23.0828 40.2646 22.3839C36.1629 21.5186 33.0191 19.8064 30.9207 17.2952C30.5213 16.8171 29.8099 16.7535 29.332 17.1529C28.8539 17.5524 28.7903 18.2637 29.1897 18.7416C31.6205 21.6508 35.19 23.619 39.7991 24.5914C43.3793 25.3466 46.5571 25.2635 47.7573 25.1926C47.7632 25.1922 47.7764 25.1916 47.7995 25.2105L49.3363 26.4741C49.7005 26.7735 50.2125 26.8149 50.6202 26.5776C50.8268 26.4574 51.617 26.3145 52.0005 26.3908C52.5952 26.5092 53.0437 27.0967 53.0437 27.7577V28.6972C53.0437 29.3655 52.6201 29.9698 52.0584 30.1029C51.9283 30.1336 51.7985 30.1445 51.6728 30.1354C50.5188 30.0514 49.4459 30.8912 49.2331 32.0492C48.2818 37.229 43.7676 40.9884 38.4995 40.9884C33.2313 40.9884 28.7176 37.2291 27.7661 32.0492ZM33.1874 54.8114C33.18 54.8177 33.1603 54.8347 33.1248 54.8292C33.0895 54.8236 33.0758 54.8013 33.0707 54.7932L29.0777 48.3115L31.2664 46.1228L36.839 51.6953L33.1874 54.8114ZM38.4998 50.1659L33.5999 45.266V42.2983C35.1219 42.9088 36.7767 43.2444 38.4998 43.2444C40.2228 43.2444 41.8777 42.9088 43.3996 42.2983V45.2658L38.4998 50.1659ZM43.9289 54.7931C43.9237 54.8013 43.9101 54.8236 43.8747 54.8292C43.8392 54.8347 43.8197 54.8177 43.8122 54.8116L40.1605 51.6953L45.7331 46.1228L47.9219 48.3115L43.9289 54.7931Z" fill="black"/>
<path d="M33.6777 62.6886H30.0611C29.4382 62.6886 28.9332 63.1935 28.9332 63.8165C28.9332 64.4394 29.4382 64.9445 30.0611 64.9445H33.6777C34.3006 64.9445 34.8056 64.4394 34.8056 63.8165C34.8056 63.1935 34.3006 62.6886 33.6777 62.6886Z" fill="black"/>
</svg>
