<?xml version="1.0" standalone="no"?>
<!DOCTYPE svg PUBLIC "-//W3C//DTD SVG 20010904//EN"
 "http://www.w3.org/TR/2001/REC-SVG-20010904/DTD/svg10.dtd">
<svg version="1.0" xmlns="http://www.w3.org/2000/svg"
 width="512.000000pt" height="326.000000pt" viewBox="0 0 512.000000 326.000000"
 preserveAspectRatio="xMidYMid meet">

<g transform="translate(0.000000,326.000000) scale(0.100000,-0.100000)"
fill="#000000" stroke="none">
<path d="M2350 3245 c-87 -20 -214 -82 -275 -135 -160 -138 -234 -311 -235
-550 0 -114 11 -160 49 -197 23 -24 29 -41 35 -98 17 -162 72 -289 171 -394
l65 -68 0 -78 c0 -57 -4 -83 -16 -96 -8 -9 -124 -66 -257 -125 -133 -59 -260
-120 -283 -136 -52 -37 -110 -113 -137 -180 -21 -52 -22 -66 -25 -592 -2 -394
0 -547 9 -568 10 -26 16 -28 63 -28 29 0 57 5 64 12 9 9 12 142 12 537 l0 526
111 -110 c61 -61 117 -122 125 -137 11 -22 14 -96 14 -402 0 -263 3 -383 12
-401 10 -22 17 -25 63 -25 33 0 57 5 64 14 9 10 11 124 9 428 l-3 413 -24 45
c-13 25 -85 107 -159 183 -135 136 -136 138 -116 157 18 19 456 220 479 220 5
0 79 -69 163 -153 l152 -152 0 -550 c0 -422 3 -556 13 -575 11 -22 20 -25 69
-28 55 -3 56 -2 67 29 8 22 11 203 11 578 l0 546 153 153 c84 83 157 152 163
152 22 0 460 -201 478 -220 20 -19 19 -21 -116 -157 -74 -76 -146 -158 -159
-183 l-24 -45 -3 -413 c-2 -304 0 -418 9 -428 7 -9 31 -14 64 -14 46 0 53 3
63 25 9 18 12 138 12 401 0 306 3 380 14 402 8 15 64 76 125 137 l111 110 0
-526 c0 -395 3 -528 12 -537 7 -7 35 -12 64 -12 47 0 53 2 63 28 9 21 11 172
9 568 -4 598 -1 574 -73 679 -54 79 -113 116 -370 229 -132 59 -248 116 -257
127 -14 16 -18 39 -18 96 l0 76 64 67 c68 73 125 174 152 270 8 30 17 116 21
190 6 130 7 136 34 167 45 52 54 98 40 199 -35 252 -192 444 -431 528 -80 28
-96 30 -255 33 -122 2 -188 -2 -235 -12z m391 -149 c90 -20 162 -58 231 -124
90 -85 138 -185 153 -313 6 -56 6 -57 -22 -63 -15 -4 -98 -9 -183 -13 -136 -5
-166 -3 -244 16 -111 27 -198 68 -278 131 -34 28 -69 50 -79 50 -33 0 -72 -44
-72 -80 0 -28 9 -42 53 -82 67 -60 181 -119 295 -154 80 -24 110 -27 270 -31
l180 -4 -2 -107 c-3 -201 -76 -338 -231 -436 -80 -50 -156 -68 -272 -64 -97 3
-111 6 -183 40 -164 78 -260 217 -282 409 l-6 56 46 27 c84 50 115 83 115 126
0 29 -6 43 -22 54 -35 25 -66 19 -130 -24 -92 -61 -92 -61 -85 83 9 183 49
279 161 385 63 60 137 99 220 117 82 18 285 18 367 1z m-331 -1412 c32 -9 95
-15 150 -15 55 0 118 6 150 15 30 9 65 18 78 22 20 6 22 3 22 -35 0 -23 6 -57
14 -75 l14 -33 -139 -139 -139 -139 -139 139 -139 139 14 33 c8 18 14 52 14
75 0 38 2 41 23 35 12 -4 47 -13 77 -22z"/>
<path d="M727 2850 c-90 -23 -169 -87 -215 -175 -22 -43 -26 -63 -27 -140 l0
-90 -59 -55 c-73 -68 -128 -150 -158 -238 -21 -61 -23 -85 -23 -252 0 -167 2
-191 23 -252 13 -37 40 -93 61 -125 37 -56 127 -153 143 -153 4 0 8 -44 8 -98
0 -73 -4 -103 -16 -120 -8 -13 -83 -56 -165 -98 -166 -82 -226 -129 -267 -209
l-27 -50 -3 -377 c-2 -257 1 -384 8 -398 15 -29 114 -29 130 -1 6 13 10 138
10 338 l0 317 71 -69 c39 -39 77 -84 85 -102 11 -24 14 -86 14 -248 0 -130 4
-224 10 -236 15 -28 115 -28 130 0 6 12 10 109 10 244 0 300 1 296 -147 448
-62 64 -113 118 -113 122 0 4 74 44 165 90 l164 83 91 -91 90 -90 0 -393 c0
-252 4 -400 10 -413 15 -28 115 -28 130 0 6 13 10 161 10 413 l0 393 91 91 92
92 72 -35 c67 -33 74 -35 101 -22 33 16 50 54 40 92 -4 19 -23 35 -68 59 -35
18 -68 44 -75 58 -7 14 -13 63 -13 112 l0 87 46 37 c61 50 128 145 161 230 27
67 28 74 28 269 0 183 -2 206 -23 267 -29 83 -105 194 -169 244 l-48 37 0 96
c0 88 -3 101 -29 149 -17 29 -46 67 -65 84 -76 67 -196 100 -284 78z m160
-171 c40 -25 73 -85 73 -132 l0 -34 -67 15 c-64 13 -122 12 -222 -4 -39 -6
-41 -5 -41 20 0 61 53 132 115 154 39 15 101 6 142 -19z m-22 -300 c84 -15
162 -58 223 -123 68 -71 103 -148 110 -236 l5 -68 -52 -11 c-148 -32 -302 16
-422 130 -79 75 -91 79 -143 40 -88 -67 -128 -93 -162 -107 l-36 -15 6 48 c18
121 111 250 220 303 94 46 158 56 251 39z m-172 -473 c85 -60 136 -84 224
-107 80 -20 169 -24 242 -10 l43 9 -6 -47 c-15 -113 -110 -240 -223 -297 -54
-27 -66 -29 -173 -29 -110 0 -119 2 -181 32 -121 60 -212 189 -225 321 -6 57
-5 62 12 62 24 0 156 63 191 90 14 11 28 20 30 20 2 0 32 -20 66 -44z m41
-637 c54 -7 90 -7 148 3 l76 14 4 -76 5 -75 -81 -82 c-44 -46 -85 -83 -91 -83
-5 0 -45 35 -87 77 l-78 78 0 83 c0 74 2 83 17 78 9 -4 48 -11 87 -17z"/>
<path d="M3984 2685 c-166 -36 -310 -170 -358 -334 -18 -62 -23 -300 -6 -331
5 -10 23 -23 40 -28 30 -11 30 -12 30 -84 0 -131 39 -234 123 -325 39 -43 39
-43 35 -113 -4 -68 -5 -72 -46 -109 -52 -47 -57 -88 -16 -120 31 -24 59 -26
94 -6 24 13 28 11 118 -78 l92 -92 0 -520 c0 -392 3 -524 12 -533 7 -7 36 -12
65 -12 41 0 54 4 63 19 6 13 10 198 10 533 l0 513 90 90 91 91 217 -109 c119
-60 219 -111 221 -114 3 -2 -31 -41 -76 -86 -134 -136 -127 -109 -131 -534 -2
-246 1 -369 8 -383 15 -29 114 -29 130 -1 6 13 10 143 10 356 0 265 3 342 14
368 8 18 46 63 85 102 l71 69 0 -437 c0 -283 4 -445 10 -458 15 -28 115 -28
130 0 6 13 10 175 10 459 0 509 0 507 -82 597 -47 51 -73 68 -289 175 -137 69
-244 129 -253 142 -11 15 -16 44 -16 87 0 58 3 68 29 96 81 83 131 217 131
349 0 59 2 66 19 66 11 0 29 12 40 26 19 24 21 40 21 143 0 188 -37 290 -144
397 -69 69 -158 116 -250 133 -80 15 -267 13 -342 -4z m386 -166 c76 -36 121
-77 160 -150 27 -51 33 -76 38 -145 l5 -84 -29 0 c-113 0 -330 58 -457 122
-89 44 -102 43 -159 -8 -40 -36 -96 -72 -142 -92 l-29 -13 5 83 c6 100 34 163
101 225 84 77 143 94 322 90 115 -2 136 -6 185 -28z m-35 -499 c61 -12 121
-24 134 -26 23 -5 23 -7 19 -87 -7 -141 -68 -240 -180 -297 -53 -26 -72 -30
-142 -30 -103 0 -181 33 -244 105 -59 67 -82 135 -82 245 l0 90 48 24 c26 13
64 37 85 53 l39 29 106 -42 c59 -24 157 -52 217 -64z m-229 -590 c56 -9 122
-4 197 15 26 7 27 6 27 -32 0 -35 -7 -46 -85 -123 l-85 -85 -85 85 c-83 83
-85 86 -78 123 5 33 9 38 27 32 12 -3 48 -10 82 -15z"/>
</g>
</svg>
