<svg width="26" height="26" viewBox="0 0 26 26" fill="none" xmlns="http://www.w3.org/2000/svg">
<mask id="mask0_324_16878" style="mask-type:alpha" maskUnits="userSpaceOnUse" x="0" y="0" width="26" height="26">
<rect width="26" height="26" fill="#D9D9D9"/>
</mask>
<g mask="url(#mask0_324_16878)">
<path d="M5.41671 20.5834C5.10976 20.5834 4.85229 20.4794 4.64429 20.2714C4.43701 20.0641 4.33337 19.807 4.33337 19.5001C4.33337 19.1931 4.43701 18.936 4.64429 18.7287C4.85229 18.5207 5.10976 18.4167 5.41671 18.4167H6.50004V10.8334C6.50004 9.3348 6.95143 8.00303 7.85421 6.83808C8.75699 5.67386 9.9306 4.91119 11.375 4.55008V3.79175C11.375 3.34036 11.5332 2.95686 11.8495 2.64125C12.1652 2.32491 12.5487 2.16675 13 2.16675C13.4514 2.16675 13.8349 2.32491 14.1505 2.64125C14.4669 2.95686 14.625 3.34036 14.625 3.79175V4.55008C16.0695 4.91119 17.2431 5.67386 18.1459 6.83808C19.0487 8.00303 19.5 9.3348 19.5 10.8334V18.4167H20.5834C20.8903 18.4167 21.1474 18.5207 21.3547 18.7287C21.5627 18.936 21.6667 19.1931 21.6667 19.5001C21.6667 19.807 21.5627 20.0641 21.3547 20.2714C21.1474 20.4794 20.8903 20.5834 20.5834 20.5834H5.41671ZM13 23.8334C12.4042 23.8334 11.8943 23.6214 11.4704 23.1975C11.0457 22.7728 10.8334 22.2626 10.8334 21.6667H15.1667C15.1667 22.2626 14.9547 22.7728 14.5308 23.1975C14.1061 23.6214 13.5959 23.8334 13 23.8334Z" fill="url(#paint0_linear_324_16878)"/>
</g>
<defs>
<linearGradient id="paint0_linear_324_16878" x1="4.33337" y1="2.16675" x2="11.7816" y2="20.3295" gradientUnits="userSpaceOnUse">
<stop stop-color="#E61E4D"/>
<stop offset="1" stop-color="#D80566"/>
</linearGradient>
</defs>
</svg>
