<svg width="20" height="20" viewBox="0 0 20 20" fill="none" xmlns="http://www.w3.org/2000/svg">
<path d="M1.00012 8C0.716788 8 0.479455 7.9 0.288121 7.7C0.0961212 7.5 0.0167877 7.26667 0.0501211 7C0.166788 5.9 0.454455 4.84567 0.913121 3.837C1.37112 2.829 1.97512 1.925 2.72512 1.125C2.90845 0.941667 3.14179 0.85 3.42512 0.85C3.70845 0.85 3.95012 0.95 4.15012 1.15C4.33345 1.33333 4.42512 1.55833 4.42512 1.825C4.42512 2.09167 4.33345 2.33333 4.15012 2.55C3.56679 3.18333 3.09612 3.87067 2.73812 4.612C2.37945 5.354 2.15012 6.15 2.05012 7C2.01679 7.28333 1.90445 7.52067 1.71312 7.712C1.52112 7.904 1.28345 8 1.00012 8ZM19.0001 8C18.7335 8 18.5001 7.904 18.3001 7.712C18.1001 7.52067 17.9835 7.28333 17.9501 7C17.8501 6.15 17.6211 5.354 17.2631 4.612C16.9045 3.87067 16.4335 3.18333 15.8501 2.55C15.6668 2.33333 15.5751 2.09167 15.5751 1.825C15.5751 1.55833 15.6751 1.33333 15.8751 1.15C16.0751 0.95 16.3125 0.85 16.5871 0.85C16.8625 0.85 17.0918 0.941667 17.2751 1.125C18.0251 1.925 18.6295 2.829 19.0881 3.837C19.5461 4.84567 19.8335 5.9 19.9501 7C19.9835 7.26667 19.9041 7.5 19.7121 7.7C19.5208 7.9 19.2835 8 19.0001 8ZM3.00012 17C2.71679 17 2.47912 16.904 2.28712 16.712C2.09579 16.5207 2.00012 16.2833 2.00012 16C2.00012 15.7167 2.09579 15.4793 2.28712 15.288C2.47912 15.096 2.71679 15 3.00012 15H4.00012V8C4.00012 6.61667 4.41679 5.38733 5.25012 4.312C6.08345 3.23733 7.16679 2.53333 8.50012 2.2V1.5C8.50012 1.08333 8.64612 0.729333 8.93812 0.438C9.22945 0.146 9.58345 0 10.0001 0C10.4168 0 10.7708 0.146 11.0621 0.438C11.3541 0.729333 11.5001 1.08333 11.5001 1.5V2.2C12.8335 2.53333 13.9168 3.23733 14.7501 4.312C15.5835 5.38733 16.0001 6.61667 16.0001 8V15H17.0001C17.2835 15 17.5208 15.096 17.7121 15.288C17.9041 15.4793 18.0001 15.7167 18.0001 16C18.0001 16.2833 17.9041 16.5207 17.7121 16.712C17.5208 16.904 17.2835 17 17.0001 17H3.00012ZM10.0001 20C9.45012 20 8.97945 19.8043 8.58812 19.413C8.19612 19.021 8.00012 18.55 8.00012 18H12.0001C12.0001 18.55 11.8045 19.021 11.4131 19.413C11.0211 19.8043 10.5501 20 10.0001 20Z" fill="white"/>
</svg>
