<svg width="16" height="18" viewBox="0 0 16 18" fill="none" xmlns="http://www.w3.org/2000/svg">
<path d="M7.08335 17.204C5.23474 16.9748 3.7033 16.1688 2.48902 14.7858C1.27413 13.4035 0.666687 11.7804 0.666687 9.9165C0.666687 8.90817 0.865298 7.9417 1.26252 7.01709C1.65974 6.09309 2.22502 5.28734 2.95835 4.59984L4.2646 5.90609C3.68405 6.42553 3.24496 7.029 2.94735 7.7165C2.64913 8.404 2.50002 9.13734 2.50002 9.9165C2.50002 11.2609 2.9278 12.4486 3.78335 13.4796C4.63891 14.5111 5.73891 15.1415 7.08335 15.3707V17.204ZM8.91669 17.204V15.3707C10.2459 15.1262 11.3419 14.4922 12.2048 13.4686C13.0683 12.445 13.5 11.2609 13.5 9.9165C13.5 8.38873 12.9653 7.09011 11.8959 6.02067C10.8264 4.95123 9.5278 4.4165 8.00002 4.4165H7.93127L8.9396 5.42484L7.65627 6.70817L4.44794 3.49984L7.65627 0.291504L8.9396 1.57484L7.93127 2.58317H8.00002C10.0472 2.58317 11.7813 3.29359 13.2021 4.71442C14.6229 6.13525 15.3334 7.86928 15.3334 9.9165C15.3334 11.7651 14.7262 13.3809 13.5119 14.7638C12.297 16.1462 10.7653 16.9596 8.91669 17.204Z" fill="#1C1B1F"/>
</svg>
